<svg xmlns="http://www.w3.org/2000/svg" viewBox="0 0 510 520" width="510" height="520">
  <title>Northern Ireland Assembly Constituencies</title>
  

  
  <path id="foyle" d="M 12,95 L 78,40 L 162,52 L 158,90 L 172,132 L 128,168 L 52,168 L 12,140 Z"></path>
  <path id="east-londonderry" d="M 78,40 L 248,16 L 282,48 L 262,88 L 225,110 L 172,132 L 158,90 L 162,52 Z"></path>
  <path id="north-antrim" d="M 248,16 L 390,22 L 440,72 L 402,125 L 358,148 L 298,128 L 262,88 L 282,48 Z"></path>
  <path id="east-antrim" d="M 390,22 L 468,58 L 482,140 L 450,168 L 405,180 L 380,152 L 402,125 L 440,72 Z"></path>
  <path id="south-antrim" d="M 358,148 L 402,125 L 380,152 L 405,180 L 450,168 L 478,198 L 440,258 L 388,268 L 325,268 L 338,232 L 362,198 Z"></path>
  <path id="west-tyrone" d="M 12,140 L 128,168 L 172,132 L 225,148 L 232,228 L 210,298 L 78,295 L 12,295 Z"></path>
  <path id="mid-ulster" d="M 225,110 L 358,148 L 338,232 L 325,268 L 282,308 L 210,298 L 232,228 L 225,148 Z"></path>
  <path id="fermanagh-and-south-tyrone" d="M 12,295 L 210,298 L 162,390 L 155,462 L 92,472 L 28,438 L 12,345 Z"></path>
  <path id="upper-bann" d="M 325,268 L 388,268 L 368,305 L 378,342 L 332,362 L 290,342 L 282,308 Z"></path>
  <path id="lagan-valley" d="M 388,268 L 440,258 L 462,268 L 435,275 L 422,372 L 378,342 L 368,305 Z"></path>
  <path id="north-down" d="M 450,168 L 495,180 L 498,265 L 468,285 L 435,275 L 462,268 L 440,258 L 478,198 Z"></path>
  <path id="strangford" d="M 435,275 L 468,285 L 498,265 L 498,372 L 462,392 L 422,372 L 425,285 Z"></path>
  <path id="newry-and-armagh" d="M 210,298 L 290,342 L 332,362 L 292,418 L 292,478 L 218,490 L 155,462 L 162,390 Z"></path>
  <path id="south-down" d="M 378,342 L 422,372 L 462,392 L 452,465 L 372,502 L 292,478 L 292,418 L 332,362 Z"></path>

  
  <path id="north-belfast" d="M 390,178 L 428,178 L 428,212 L 390,212 Z" stroke-width="0.75"></path>
  <path id="east-belfast" d="M 428,192 L 460,192 L 460,228 L 428,228 Z" stroke-width="0.75"></path>
  <path id="south-belfast" d="M 390,212 L 428,212 L 428,248 L 390,248 Z" stroke-width="0.75"></path>
  <path id="west-belfast" d="M 360,192 L 390,192 L 390,228 L 360,228 Z" stroke-width="0.75"></path>

  
  <text x="82" y="115">Foyle</text>
  <text x="185" y="72">East Londonderry</text>
  <text x="325" y="85">North Antrim</text>
  <text x="430" y="110">East Antrim</text>
  <text x="122" y="225">West Tyrone</text>
  <text x="280" y="222">Mid Ulster</text>
  <text x="90" y="388">Fermanagh &amp;</text>
  <text x="90" y="400">South Tyrone</text>
  <text x="335" y="312">Upper Bann</text>
  <text x="400" y="310">Lagan Valley</text>
  <text x="470" y="228">North Down</text>
  <text x="458" y="330">Strangford</text>
  <text x="230" y="420">Newry &amp; Armagh</text>
  <text x="382" y="430">South Down</text>
  <text x="370" y="232">S.Antrim</text>

  
  <text x="404" y="193" font-size="8">1</text>
  <text x="444" y="212" font-size="8">2</text>
  <text x="404" y="232" font-size="8">3</text>
  <text x="375" y="212" font-size="8">4</text>

  
  <text x="20" y="500" font-size="9" fill="#020507">1 North Belfast  2 East Belfast  3 South Belfast  4 West Belfast</text>
</svg>